<?xml version="1.0" standalone="no"?>
<!DOCTYPE svg PUBLIC "-//W3C//DTD SVG 20010904//EN"
 "http://www.w3.org/TR/2001/REC-SVG-20010904/DTD/svg10.dtd">
<svg version="1.0" xmlns="http://www.w3.org/2000/svg"
 width="1024.000000pt" height="1024.000000pt" viewBox="0 0 1024.000000 1024.000000"
 preserveAspectRatio="xMidYMid meet">
<metadata>
Created by potrace 1.14, written by Peter Selinger 2001-2017
</metadata>
<g transform="translate(0.000000,1024.000000) scale(0.100000,-0.100000)"
fill="#000000" stroke="none">
<path d="M5060 9324 c-212 -57 -376 -230 -410 -434 -34 -200 31 -421 158 -543
225 -213 553 -208 766 13 78 81 120 161 142 276 44 227 -3 401 -146 544 -132
132 -337 190 -510 144z m347 -171 c89 -41 160 -142 184 -261 16 -75 3 -137
-39 -192 l-27 -35 -6 80 c-9 102 -25 171 -50 212 -46 75 -159 147 -266 173
-72 16 -69 36 7 51 54 11 140 -1 197 -28z"/>
<path d="M5780 8473 c-135 -252 -440 -395 -719 -339 -173 35 -288 109 -423
270 l-24 29 -47 -21 c-242 -107 -437 -343 -507 -611 -18 -68 -8 -85 78 -143
182 -122 344 -273 462 -430 34 -46 65 -84 69 -85 3 -2 23 24 44 57 84 132 203
235 352 306 118 56 187 73 317 81 171 10 333 -27 477 -108 101 -57 127 -84
156 -162 35 -95 71 -235 92 -360 25 -147 22 -422 -6 -580 -26 -147 -26 -139 5
-176 35 -42 81 -42 127 -2 39 35 126 188 169 299 41 104 84 254 105 365 21
115 24 427 5 537 -67 384 -228 700 -488 956 -46 45 -111 104 -146 131 l-64 50
-34 -64z m178 -212 c216 -239 352 -515 397 -804 16 -105 14 -197 -5 -197 -5 0
-14 26 -21 58 -26 123 -61 257 -85 320 -77 206 -196 395 -327 521 -62 59 -67
68 -67 106 0 40 13 65 35 65 6 0 39 -31 73 -69z m-1282 -52 c260 -180 360
-222 565 -236 166 -11 69 -27 -121 -20 -222 9 -331 43 -455 142 -89 71 -110
101 -97 131 16 34 40 30 108 -17z"/>
<path d="M2015 7861 c-96 -27 -154 -61 -231 -136 -120 -118 -170 -246 -161
-415 8 -165 85 -315 207 -404 75 -56 211 -121 278 -135 258 -53 526 98 614
346 51 144 42 278 -27 419 -75 154 -235 288 -391 328 -80 21 -212 19 -289 -3z
m391 -147 c93 -44 166 -149 185 -266 10 -59 0 -120 -21 -133 -10 -6 -40 50
-40 75 0 58 -98 208 -174 269 -31 24 -56 47 -56 52 0 22 62 24 106 3z m154
-434 c0 -5 -2 -10 -4 -10 -3 0 -8 5 -11 10 -3 6 -1 10 4 10 6 0 11 -4 11 -10z"/>
<path d="M3099 7723 c-1 -5 -1 -11 0 -15 0 -5 -6 -8 -15 -8 -8 0 -12 5 -8 11
10 16 -123 2 -253 -27 l-72 -16 20 -40 c63 -124 83 -319 45 -458 -78 -288
-342 -498 -633 -503 l-93 -2 -10 -35 c-41 -144 -39 -339 5 -485 44 -152 151
-335 205 -353 18 -6 45 -2 95 15 69 23 179 52 283 72 84 17 318 31 400 24 72
-6 75 -5 67 13 -4 10 -19 55 -33 99 -21 69 -25 100 -25 220 -1 149 12 224 59
336 99 239 303 423 552 499 80 24 75 25 236 -37 266 -103 496 -264 710 -496
82 -89 92 -97 126 -97 51 0 90 37 90 84 0 20 -11 64 -24 98 -224 594 -752
1010 -1383 1093 -119 16 -342 20 -344 8z m-79 -22 c0 -9 -41 -23 -49 -16 -3 4
28 20 47 24 1 1 2 -3 2 -8z m24 -44 c-3 -9 -16 -17 -28 -16 -21 0 -21 1 2 11
15 8 21 17 17 27 -5 12 -3 13 5 5 6 -6 8 -18 4 -27z m-84 -18 c15 -28 5 -23
-15 7 -9 15 -12 23 -6 20 6 -4 16 -16 21 -27z m611 -78 c203 -22 375 -83 554
-198 157 -101 276 -221 417 -418 50 -70 152 -255 144 -262 -3 -4 -7 -4 -9 -2
-248 325 -359 435 -596 593 -189 125 -331 193 -531 251 -151 43 -145 53 21 36z
m-651 -1408 c0 -13 -4 -23 -9 -23 -17 0 -23 20 -16 48 5 20 8 23 16 11 5 -7 9
-24 9 -36z"/>
<path d="M7718 7612 c-49 -66 -64 -98 -88 -183 -47 -170 -6 -351 111 -490 107
-128 296 -200 469 -178 71 9 186 44 196 60 3 5 -14 1 -38 -7 -24 -9 -81 -18
-128 -21 -100 -6 -183 11 -275 57 -71 36 -143 99 -125 110 16 10 -29 63 -47
56 -7 -3 -10 1 -7 8 3 7 -2 16 -11 20 -11 4 -14 2 -9 -7 5 -8 4 -9 -4 -2 -25
24 -72 137 -88 213 -15 69 -16 96 -7 155 11 75 55 199 81 230 8 9 13 19 11 22
-3 2 -21 -17 -41 -43z"/>
<path d="M6664 7545 c-3 -14 -3 -50 1 -80 12 -99 7 -346 -10 -458 -13 -90 -40
-214 -60 -278 -5 -14 8 -15 117 -12 99 4 141 1 216 -16 377 -83 649 -396 679
-781 6 -77 5 -79 -32 -141 -143 -238 -351 -451 -595 -608 -52 -34 -91 -61 -87
-61 4 0 44 23 89 51 257 159 481 382 637 634 l43 70 -6 75 c-4 41 -14 100 -22
132 -8 31 -11 64 -7 74 5 13 3 15 -7 9 -9 -5 -11 -4 -6 4 4 6 0 18 -8 27 -9 8
-16 21 -16 27 0 7 4 6 10 -3 8 -11 9 -7 4 15 -4 17 -10 35 -14 40 -3 6 -14 31
-24 58 -10 26 -22 47 -27 47 -5 0 -9 6 -9 14 0 18 -89 108 -100 101 -4 -2 -43
24 -85 60 -88 73 -223 143 -335 176 -54 15 -114 23 -217 26 -125 5 -141 7
-136 22 4 9 15 25 26 35 15 15 17 21 7 24 -8 3 -25 -8 -39 -24 -16 -19 -22
-22 -18 -10 20 51 58 277 68 402 16 196 -11 453 -37 349z"/>
<path d="M2870 5765 c-380 -52 -733 -233 -1000 -512 -122 -127 -194 -226 -277
-383 -76 -142 -77 -132 14 -159 212 -62 375 -221 450 -439 22 -65 26 -95 27
-192 1 -67 -5 -138 -13 -170 -20 -81 -71 -186 -125 -257 l-48 -63 20 -32 c29
-47 148 -162 210 -203 141 -96 304 -152 467 -162 101 -6 101 -6 123 21 11 15
29 51 38 79 61 183 221 451 354 593 22 24 40 45 40 47 0 2 -19 10 -42 17 -115
34 -280 140 -364 233 -232 258 -294 621 -158 927 22 50 33 61 107 107 277 173
547 258 887 282 128 8 135 10 157 35 27 32 30 81 8 114 -16 21 -121 60 -132
48 -4 -3 -1 -6 5 -6 7 0 12 -4 12 -10 0 -5 -7 -10 -16 -10 -11 0 -14 -5 -9
-17 16 -43 36 -42 -337 -28 -115 4 -208 12 -208 16 0 5 19 9 43 9 48 0 81 14
50 22 -31 7 -305 -1 -337 -11 -17 -5 -46 -12 -65 -15 -27 -5 -32 -3 -27 9 4
11 -1 15 -17 15 -18 0 -19 2 -7 11 11 8 8 9 -15 4 -28 -6 -44 -20 -45 -37 0
-12 14 -10 27 3 8 8 17 8 29 1 16 -9 13 -11 -17 -17 -20 -4 -49 -5 -65 -3
l-29 4 28 12 c15 6 27 18 27 26 0 17 57 29 108 21 l37 -5 -34 13 -34 13 44 14
c24 7 52 12 63 11 10 -1 31 3 46 9 16 7 89 15 162 19 133 8 133 8 33 8 -55 1
-143 -5 -195 -12z m-163 -51 c-3 -3 -12 -4 -19 -1 -8 3 -5 6 6 6 11 1 17 -2
13 -5z m-157 -79 c-14 -17 -30 -20 -30 -6 0 5 8 12 18 14 9 3 19 5 21 6 2 0
-2 -6 -9 -14z m-23 -31 c-3 -3 -12 -4 -19 -1 -8 3 -5 6 6 6 11 1 17 -2 13 -5z
m-148 -1046 c29 -80 83 -187 127 -254 43 -65 157 -184 176 -184 8 0 20 -9 28
-20 8 -11 20 -20 27 -20 7 0 13 -5 13 -11 0 -6 12 -9 28 -8 15 2 41 -5 57 -16
17 -10 49 -31 73 -46 24 -15 57 -31 73 -34 16 -4 29 -13 29 -21 0 -11 6 -13
23 -8 12 3 19 3 15 -1 -4 -4 -30 -10 -57 -12 -39 -3 -57 -10 -80 -33 -32 -32
-64 -38 -102 -17 -50 26 -137 97 -205 168 -154 161 -238 334 -260 534 -8 72 4
66 35 -17z"/>
<path d="M3208 5773 c7 -3 16 -2 19 1 4 3 -2 6 -13 5 -11 0 -14 -3 -6 -6z"/>
<path d="M3318 5763 c7 -3 16 -2 19 1 4 3 -2 6 -13 5 -11 0 -14 -3 -6 -6z"/>
<path d="M3368 5753 c7 -3 16 -2 19 1 4 3 -2 6 -13 5 -11 0 -14 -3 -6 -6z"/>
<path d="M2763 5713 c9 -2 23 -2 30 0 6 3 -1 5 -18 5 -16 0 -22 -2 -12 -5z"/>
<path d="M8054 5322 c-150 -142 -354 -275 -533 -349 l-68 -28 59 -65 c143
-155 222 -338 235 -540 15 -258 -81 -498 -273 -681 -57 -53 -62 -56 -139 -69
-112 -18 -388 -16 -500 4 -145 25 -176 27 -90 7 166 -41 391 -51 592 -27 107
12 115 15 160 52 94 75 188 194 229 290 9 22 27 45 38 50 12 5 21 14 22 19 4
48 17 83 31 78 11 -4 14 0 12 18 -2 13 -1 29 2 34 40 67 45 325 10 450 -35
127 -91 230 -166 308 -59 60 -69 67 -105 67 -21 0 -41 4 -44 8 -3 4 35 27 84
50 218 103 435 255 554 390 18 20 18 21 -1 19 -11 0 -60 -39 -109 -85z"/>
<path d="M6828 5085 c-56 -29 -78 -58 -78 -101 0 -33 40 -84 67 -84 21 0 58
38 59 61 1 19 -4 20 -47 17 -41 -2 -49 0 -49 14 0 34 25 70 62 89 21 11 38 22
38 24 0 7 1 7 -52 -20z"/>
<path d="M8681 4699 c-13 -5 -21 -12 -18 -15 3 -3 18 1 34 10 31 17 21 20 -16
5z"/>
<path d="M1470 4610 c73 -8 144 -31 210 -67 61 -33 66 -40 31 -38 -17 1 -28
-2 -25 -7 4 -5 13 -7 21 -3 14 5 14 3 2 -12 -12 -15 -12 -16 3 -11 10 4 18 0
22 -10 3 -9 15 -30 26 -47 44 -67 69 -125 76 -173 6 -51 0 -102 -14 -102 -4 0
-20 24 -36 53 -67 119 -135 191 -226 237 -25 12 -57 35 -72 51 -26 28 -31 29
-116 29 -72 0 -89 3 -89 15 0 8 3 13 5 10 8 -8 32 16 32 31 0 8 -10 15 -22 15
-15 1 -11 4 12 9 31 7 32 8 8 9 -41 2 -149 -42 -217 -88 -234 -159 -301 -495
-147 -735 106 -166 311 -270 500 -252 89 8 253 64 320 110 114 76 196 191 230
322 86 333 -180 669 -524 663 l-75 -2 65 -7z"/>
<path d="M8756 4605 c-133 -37 -267 -139 -330 -250 -136 -244 -76 -533 146
-700 53 -40 158 -93 158 -80 0 2 -24 17 -53 33 -43 24 -53 35 -52 54 1 12 -4
29 -12 36 -17 17 -17 38 1 54 12 11 5 22 -44 68 -72 69 -86 93 -65 114 15 15
10 36 -26 108 -5 10 -9 35 -10 55 -1 35 -2 36 -10 13 -6 -17 -7 -3 -4 45 2 39
1 62 -1 53 -3 -10 -10 -18 -15 -18 -13 0 7 37 23 43 8 3 6 6 -4 6 -16 1 -15 6
6 56 71 160 206 277 358 310 55 12 58 13 23 13 -22 0 -62 -6 -89 -13z m-223
-783 c18 -16 24 -52 7 -52 -5 0 -7 6 -4 14 3 8 -8 20 -30 30 -20 9 -36 19 -36
21 0 10 47 0 63 -13z m82 -162 c3 -5 1 -10 -4 -10 -6 0 -11 5 -11 10 0 6 2 10
4 10 3 0 8 -4 11 -10z"/>
<path d="M1363 4603 c9 -2 23 -2 30 0 6 3 -1 5 -18 5 -16 0 -22 -2 -12 -5z"/>
<path d="M1340 4576 c0 -2 7 -6 15 -10 8 -3 15 -1 15 4 0 6 -7 10 -15 10 -8 0
-15 -2 -15 -4z"/>
<path d="M8483 4566 c1 -6 -4 -10 -11 -8 -8 1 -11 -2 -7 -8 5 -8 13 -6 26 6
23 21 23 21 5 21 -8 0 -14 -5 -13 -11z"/>
<path d="M8401 4467 c-13 -21 -12 -21 5 -5 10 10 16 20 13 22 -3 3 -11 -5 -18
-17z"/>
<path d="M8365 4419 c-4 -6 -5 -12 -2 -15 2 -3 7 2 10 11 7 17 1 20 -8 4z"/>
<path d="M3730 4236 c19 -7 41 -24 48 -37 18 -34 11 -82 -11 -85 -10 -1 -26
-9 -35 -17 -10 -8 -26 -17 -37 -20 -18 -4 -18 -5 3 -6 24 -1 31 -31 7 -31 -18
0 -20 -17 -2 -23 9 -3 9 -8 -3 -21 -13 -17 -15 -17 -33 5 -15 19 -20 20 -27 9
-7 -11 -4 -17 9 -22 27 -9 33 -24 17 -37 -10 -8 -16 -9 -21 -1 -9 15 -25 12
-25 -4 0 -8 -4 -17 -9 -20 -5 -4 -7 4 -4 16 4 22 4 23 -11 4 -21 -26 -20 -32
5 -57 15 -15 18 -24 11 -31 -17 -17 -57 15 -69 54 -10 31 -11 32 -12 6 -1 -14
-4 -34 -8 -44 -4 -12 -3 -15 5 -10 7 4 12 1 12 -7 0 -22 24 -39 37 -26 7 7 13
7 17 1 3 -5 -6 -20 -19 -32 -17 -16 -25 -19 -25 -10 0 11 -3 11 -12 2 -8 -8
-8 -15 0 -24 8 -10 8 -18 0 -28 -8 -12 -9 -12 -4 2 3 10 1 20 -5 24 -5 3 -7
13 -4 23 3 11 -4 26 -20 41 -26 25 -35 18 -11 -9 14 -16 20 -40 17 -72 -2 -25
-40 -59 -69 -60 -17 -1 -20 -3 -9 -6 10 -3 17 -13 16 -26 0 -12 -3 -16 -6 -9
-2 6 -9 9 -15 6 -6 -4 -6 -9 3 -14 19 -13 37 -1 32 21 -3 10 -3 19 0 19 12 0
14 -41 2 -64 -9 -17 -10 -24 -2 -22 7 2 9 1 5 -1 -5 -3 -8 -12 -8 -21 0 -13
-2 -14 -9 -4 -6 10 -11 6 -19 -17 -10 -28 -8 -34 8 -33 3 0 6 -9 7 -21 0 -12
-1 -16 -4 -10 -3 10 -8 9 -20 -3 -11 -11 -14 -26 -9 -55 4 -27 3 -38 -4 -34
-9 6 -14 -19 -11 -56 1 -8 -3 -26 -8 -40 -5 -13 -10 -18 -10 -11 -1 7 -5 11
-10 8 -11 -7 -2 -56 10 -56 5 0 7 -10 4 -23 -4 -13 -10 -59 -14 -103 -7 -64
-5 -82 7 -96 8 -10 12 -18 8 -18 -4 0 -2 -6 3 -12 6 -7 32 -44 57 -83 79 -118
211 -230 363 -305 178 -89 435 -104 639 -38 66 22 86 31 189 89 l52 30 6 -38
c12 -76 48 -220 77 -308 33 -99 127 -302 177 -379 17 -28 31 -54 31 -58 0 -4
-18 -8 -39 -8 -22 0 -43 -5 -47 -11 -4 -7 -22 -9 -48 -5 -34 5 -48 3 -68 -14
-15 -11 -33 -20 -42 -20 -9 0 -16 -7 -16 -15 0 -9 -11 -20 -25 -25 -14 -5 -28
-16 -31 -24 -3 -8 -23 -17 -45 -21 -21 -4 -41 -11 -45 -16 -3 -5 -10 -7 -15
-3 -6 3 -27 3 -47 -1 -30 -6 -33 -9 -18 -14 17 -6 17 -8 4 -14 -10 -3 -19 0
-22 9 -5 13 -9 13 -35 -1 -17 -8 -37 -15 -45 -15 -25 0 -97 42 -103 59 -3 9
-13 32 -24 52 -10 20 -16 39 -12 43 3 3 1 6 -5 6 -7 0 -12 9 -12 19 0 11 -3
21 -7 23 -14 5 -63 76 -63 89 0 7 -3 9 -7 6 -3 -4 -19 12 -35 35 -15 24 -28
39 -28 35 0 -4 -13 6 -30 23 -30 31 -40 70 -18 70 6 0 8 3 5 6 -4 4 -18 -1
-32 -10 -14 -9 -25 -12 -25 -6 0 5 -8 10 -18 10 -9 0 -23 9 -30 20 -7 11 -21
20 -32 20 -10 0 -31 11 -46 25 -27 25 -51 34 -39 15 3 -5 1 -10 -4 -10 -6 0
-11 4 -11 8 0 22 -340 57 -405 42 -24 -5 -51 -7 -59 -4 -9 3 -16 1 -16 -6 0
-6 -4 -9 -8 -6 -5 3 -14 -3 -22 -14 -10 -14 -21 -17 -47 -13 -22 4 -33 2 -33
-6 0 -7 5 -9 10 -6 6 3 10 1 10 -4 0 -16 -26 -13 -40 4 -15 18 -31 20 -28 4 2
-6 -2 -13 -8 -16 -13 -5 -74 86 -74 111 0 10 -5 27 -12 39 -16 29 -19 41 -24
112 -3 33 -9 69 -14 80 -15 36 -21 116 -20 309 0 160 3 197 20 247 11 32 20
68 20 79 0 12 7 34 15 49 8 16 12 31 9 34 -4 3 1 16 9 28 11 15 13 28 7 45 -7
17 -6 22 3 19 7 -3 19 12 29 35 16 38 16 40 -2 40 -10 0 -28 15 -40 35 -12 19
-25 35 -30 35 -5 0 -13 12 -18 28 -9 26 -11 24 -46 -52 -21 -43 -35 -85 -32
-93 3 -8 2 -12 -3 -9 -11 7 -34 -55 -70 -194 -46 -178 -54 -263 -48 -476 6
-200 22 -304 73 -467 22 -69 114 -280 129 -295 2 -2 21 9 42 25 21 17 48 35
61 42 24 13 20 36 -5 27 -8 -3 -11 -1 -8 4 3 6 1 10 -6 10 -7 0 -9 3 -6 6 4 4
17 0 30 -9 23 -15 29 -14 87 10 328 132 704 -9 858 -322 28 -56 54 -133 67
-197 5 -28 6 -28 86 -28 246 0 528 129 680 312 59 71 61 95 18 164 -114 178
-227 477 -254 667 -7 53 -14 56 -56 26 -50 -35 -191 -96 -269 -115 -105 -27
-305 -24 -412 4 -221 60 -400 194 -523 393 -51 83 -53 99 -30 251 46 310 155
573 347 839 64 89 65 144 1 177 -12 7 -32 12 -45 11 -18 0 -16 -3 12 -13z
m-620 -837 c7 -12 5 -16 -9 -15 -22 1 -54 33 -46 45 3 5 0 13 -6 17 -8 5 -9 3
-4 -7 7 -12 6 -12 -7 -1 -9 7 -16 22 -15 33 1 16 7 13 40 -19 21 -20 43 -44
47 -53z m-62 -6 c12 -23 -3 -63 -23 -63 -8 0 -15 5 -15 10 0 6 5 10 11 10 7 0
8 11 4 30 -7 33 8 41 23 13z m607 -1177 c69 -20 160 -62 149 -69 -5 -3 -36 4
-69 15 -44 15 -87 20 -160 21 -86 0 -112 -4 -189 -30 -58 -20 -82 -33 -70 -36
11 -3 7 -5 -11 -4 -34 1 -75 -18 -75 -35 0 -6 -3 -8 -7 -5 -3 4 -12 2 -19 -3
-17 -15 -94 17 -94 39 0 20 173 94 274 117 70 16 195 11 271 -10z m1165 -411
c0 -8 -9 -24 -20 -35 -15 -15 -16 -20 -6 -20 8 0 17 -4 20 -9 4 -5 -3 -7 -14
-4 -16 4 -19 2 -14 -12 6 -14 3 -16 -16 -10 -19 6 -22 4 -17 -9 6 -14 3 -16
-14 -11 -15 5 -22 2 -26 -14 -3 -14 -13 -21 -29 -21 -25 0 -41 -16 -22 -22 7
-3 5 -7 -6 -11 -10 -4 -15 -3 -11 3 3 6 4 10 1 10 -5 0 -65 -25 -96 -40 -8 -4
-35 -6 -60 -4 -34 2 -40 1 -25 -7 15 -7 11 -8 -17 -4 -25 4 -38 2 -38 -5 0 -7
-7 -5 -16 4 -8 9 -26 16 -39 16 -36 0 -55 10 -55 31 0 16 7 19 42 19 62 0 193
37 273 77 39 19 72 38 75 42 3 3 23 16 45 28 47 26 85 30 85 8z m-343 -241
c-3 -3 -12 -4 -19 -1 -8 3 -5 6 6 6 11 1 17 -2 13 -5z"/>
<path d="M3649 4083 c-13 -16 -12 -17 4 -4 9 7 17 15 17 17 0 8 -8 3 -21 -13z"/>
<path d="M3639 4047 c-14 -13 -29 -31 -33 -42 -3 -10 9 -2 29 19 31 33 41 47
33 46 -2 0 -15 -11 -29 -23z"/>
<path d="M3403 4028 c-44 -38 -133 -132 -165 -174 -12 -16 -25 -31 -28 -34
-12 -10 -99 -136 -129 -188 -22 -37 -29 -60 -25 -78 3 -13 10 -24 16 -24 5 0
7 4 4 9 -3 5 1 14 8 20 11 9 16 9 21 0 4 -6 1 -15 -6 -20 -19 -11 27 -59 58
-59 28 0 29 10 3 43 -43 54 -9 127 59 127 33 0 33 0 17 23 -9 12 -23 32 -32
44 -26 36 -6 49 27 17 l29 -28 16 22 c8 12 24 22 35 22 12 0 19 7 19 19 0 11
8 26 18 33 10 7 24 27 30 43 7 17 25 44 41 60 41 45 47 79 16 95 l-25 13 22
24 c31 34 15 28 -29 -9z"/>
<path d="M3560 3985 c-7 -9 -11 -17 -8 -20 2 -2 12 4 21 15 9 11 13 20 8 20
-5 0 -14 -7 -21 -15z"/>
<path d="M7735 3910 c3 -5 8 -10 11 -10 2 0 4 5 4 10 0 6 -5 10 -11 10 -5 0
-7 -4 -4 -10z"/>
<path d="M3440 3796 c0 -2 7 -7 16 -10 8 -3 12 -2 9 4 -6 10 -25 14 -25 6z"/>
<path d="M9395 3763 c-25 -37 -76 -78 -94 -76 -10 2 -11 0 -3 -3 6 -3 10 -10
6 -15 -3 -5 -14 -5 -27 2 -20 9 -20 9 -5 -4 13 -10 15 -16 6 -25 -8 -8 -8 -12
-2 -12 14 0 101 88 126 128 11 18 18 32 15 32 -3 0 -13 -12 -22 -27z"/>
<path d="M3446 3749 c-22 -22 -10 -25 17 -5 10 8 15 16 10 19 -4 2 -17 -4 -27
-14z"/>
<path d="M6196 3729 c-29 -35 -32 -58 -12 -97 27 -50 187 -189 206 -177 6 4 9
1 8 -6 -3 -15 163 -130 176 -122 5 4 -4 13 -21 22 -74 40 -132 84 -87 67 9 -3
12 -2 9 5 -4 6 -14 8 -22 5 -15 -6 -58 38 -58 60 0 18 -26 44 -44 45 -9 1 -6
4 7 8 23 6 22 7 -17 36 -22 17 -44 40 -50 52 -5 12 -19 24 -31 28 -11 3 -18
11 -15 16 4 5 -3 9 -15 9 -14 0 -19 -4 -14 -12 5 -10 4 -10 -6 -1 -11 10 -11
18 -2 38 14 30 56 48 92 40 19 -4 21 -3 10 5 -8 5 -31 10 -52 10 -28 0 -42 -7
-62 -31z m190 -237 c-4 -3 -14 2 -24 12 -16 18 -16 18 6 6 13 -6 21 -14 18
-18z"/>
<path d="M3300 3680 c0 -11 2 -20 4 -20 2 0 6 9 9 20 3 11 1 20 -4 20 -5 0 -9
-9 -9 -20z"/>
<path d="M6560 3646 c20 -8 51 -16 70 -19 19 -4 8 2 -25 13 -67 22 -100 26
-45 6z"/>
<path d="M3385 3640 c3 -5 11 -10 16 -10 6 0 7 5 4 10 -3 6 -11 10 -16 10 -6
0 -7 -4 -4 -10z"/>
<path d="M3177 3614 c-12 -13 -8 -51 8 -64 8 -7 23 -9 32 -5 17 7 17 8 1 14
-14 5 -14 9 -4 23 7 10 17 14 21 10 4 -4 6 0 3 8 -5 16 -49 26 -61 14z"/>
<path d="M8490 3470 c-9 -6 -10 -10 -3 -10 6 0 15 5 18 10 8 12 4 12 -15 0z"/>
<path d="M8440 3429 c0 -6 -6 -9 -13 -6 -8 3 -14 -1 -14 -8 0 -10 5 -11 18 -4
22 11 34 29 20 29 -6 0 -11 -5 -11 -11z"/>
<path d="M4843 3385 c-17 -7 -36 -22 -42 -34 -17 -32 -13 -34 12 -7 52 60 123
35 152 -54 12 -38 13 -39 9 -10 -14 84 -71 130 -131 105z"/>
<path d="M6590 3310 c8 -6 24 -15 35 -21 16 -8 15 -6 -4 10 -13 12 -28 21 -35
21 -6 0 -4 -5 4 -10z"/>
<path d="M4775 3193 c-26 -373 91 -781 315 -1098 121 -172 338 -368 534 -484
85 -50 137 -74 104 -47 -10 7 -18 19 -18 26 0 7 -7 10 -16 6 -8 -3 -12 -2 -9
3 7 13 -82 74 -95 66 -6 -4 -9 -2 -8 2 2 5 -17 27 -42 49 -25 21 -55 49 -68
62 -12 12 -26 22 -31 22 -5 0 -8 8 -7 17 0 11 -7 19 -19 21 -12 2 -28 19 -39
42 -10 22 -23 37 -27 34 -5 -3 -9 -2 -9 3 0 4 -16 25 -35 47 -48 53 -42 61 10
14 30 -28 125 -99 125 -95 0 3 -32 38 -72 78 -39 41 -91 100 -114 131 -23 32
-49 65 -59 74 -9 9 -21 27 -26 38 -5 12 -20 39 -34 61 -86 138 -172 353 -230
580 -5 17 -9 35 -11 40 -7 23 -33 177 -45 260 -12 87 -33 145 -56 152 -7 3
-14 -33 -18 -104z"/>
<path d="M6674 3266 c11 -9 24 -16 30 -16 12 0 7 5 -24 19 -24 11 -24 11 -6
-3z"/>
<path d="M6740 3235 c14 -8 30 -14 35 -14 6 0 -1 6 -15 14 -14 8 -29 14 -35
14 -5 0 1 -6 15 -14z"/>
<path d="M4981 3224 c0 -11 3 -14 6 -6 3 7 2 16 -1 19 -3 4 -6 -2 -5 -13z"/>
<path d="M5005 3148 c25 -83 93 -238 142 -323 52 -90 82 -135 175 -263 56 -78
204 -219 244 -233 28 -10 87 -14 204 -13 152 0 172 3 250 28 151 49 320 155
416 259 32 34 54 56 50 50 -14 -25 14 -13 30 13 13 19 19 22 25 12 6 -9 9 -4
9 14 0 21 6 28 30 33 17 4 30 11 30 16 0 6 12 35 26 66 23 49 26 62 19 112 -5
31 -8 71 -7 89 0 18 -4 30 -9 27 -5 -4 -9 -1 -9 4 0 6 4 11 9 11 5 0 7 18 5
40 -3 22 -3 40 0 40 3 0 55 -25 117 -55 175 -86 415 -157 609 -179 48 -6 53
-5 37 7 -9 8 -47 17 -85 21 -179 18 -401 85 -586 177 -66 33 -121 57 -123 55
-3 -2 -9 -37 -14 -77 -15 -105 -51 -211 -106 -309 -88 -157 -274 -316 -444
-378 -133 -49 -320 -66 -455 -41 -54 9 -65 16 -127 77 -86 83 -167 182 -241
292 -62 91 -173 312 -201 398 -16 49 -34 77 -20 30z"/>
<path d="M6446 2594 c-5 -14 -4 -15 9 -4 17 14 19 20 6 20 -5 0 -12 -7 -15
-16z"/>
<path d="M7389 2296 c-7 -19 -17 -32 -22 -29 -6 3 -7 1 -3 -5 3 -6 -3 -26 -14
-44 -11 -18 -20 -26 -20 -18 -1 11 -4 9 -12 -5 -6 -11 -17 -24 -25 -28 -7 -4
-13 -13 -13 -19 0 -6 7 -5 17 3 15 12 16 12 8 -1 -18 -32 -70 -105 -80 -112
-5 -4 -7 -10 -3 -13 10 -11 119 144 155 221 19 42 32 78 30 81 -3 2 -11 -11
-18 -31z"/>
<path d="M6801 2126 c2 -2 51 -6 109 -9 68 -3 91 -2 65 3 -39 9 -182 14 -174
6z"/>
<path d="M7028 2103 c7 -3 16 -2 19 1 4 3 -2 6 -13 5 -11 0 -14 -3 -6 -6z"/>
<path d="M7125 2071 c22 -10 46 -16 53 -13 7 2 12 -1 10 -8 -2 -7 3 -15 10
-17 11 -4 12 -1 3 15 -9 17 -8 21 7 25 9 2 -3 3 -28 3 -25 -1 -56 2 -70 6 -14
5 -7 0 15 -11z"/>
<path d="M3397 2025 c-178 -49 -337 -212 -409 -419 -31 -89 -31 -236 0 -331
49 -150 165 -275 311 -336 62 -26 94 -33 171 -37 54 -2 119 1 151 7 131 27
263 118 343 234 19 29 52 102 72 162 32 95 37 123 37 200 0 249 -161 458 -400
520 -69 18 -210 18 -276 0z m235 -39 c36 -8 80 -22 97 -30 17 -9 32 -15 33
-14 2 1 23 -12 48 -29 80 -56 143 -127 183 -206 42 -84 76 -221 62 -252 -4
-11 -7 -30 -6 -41 3 -26 -34 -99 -50 -99 -6 0 -18 -13 -27 -30 -27 -47 -39
-57 -46 -39 -3 9 -6 25 -7 37 0 12 -3 16 -6 10 -2 -7 -10 -13 -17 -13 -7 0
-23 -21 -35 -47 -30 -63 -91 -113 -140 -113 -20 -1 -52 -7 -72 -14 -19 -7 -52
-10 -73 -8 -21 2 -48 -1 -61 -8 -20 -11 -28 -9 -53 9 -17 11 -36 21 -44 21 -7
0 -25 11 -40 25 -15 14 -31 25 -36 25 -5 0 -15 7 -22 15 -7 8 -16 12 -21 9 -5
-3 -9 1 -9 8 0 11 -2 10 -9 0 -6 -10 -10 -8 -14 8 -3 12 -15 24 -26 27 -20 5
-23 9 -25 36 -1 17 -17 27 -44 27 -16 0 -21 4 -15 13 10 17 12 57 1 57 -4 0
-8 7 -8 15 0 8 -7 15 -15 15 -8 0 -15 4 -15 9 0 13 25 20 52 15 l23 -5 -22 17
c-28 20 -30 71 -9 154 8 30 12 58 10 61 -2 4 3 20 11 35 8 16 15 39 15 51 0
12 5 25 10 28 14 9 3 24 -26 35 -37 14 -31 52 12 88 112 93 280 130 436 98z
m231 -860 c3 -8 -1 -20 -9 -27 -8 -7 -12 -19 -9 -28 3 -8 3 -12 -1 -9 -3 4
-15 -3 -24 -15 -13 -16 -15 -24 -7 -29 7 -5 -4 -6 -23 -3 -29 5 -31 4 -12 -4
25 -12 30 -24 5 -14 -10 4 -14 2 -9 -5 3 -6 1 -14 -5 -18 -8 -5 -9 -3 -4 6 6
10 3 11 -16 5 -54 -17 -144 -22 -163 -9 -14 10 -23 10 -37 1 -14 -9 -26 -8
-52 1 -18 7 -40 12 -47 12 -24 0 -100 32 -100 42 0 9 19 8 142 -8 53 -7 166
22 244 63 38 19 73 39 79 44 14 14 42 11 48 -5z m-163 -26 c0 -5 -2 -10 -4
-10 -2 0 -12 -3 -22 -7 -16 -6 -17 -5 -4 10 17 19 30 22 30 7z m160 -54 c0 -2
-8 -10 -17 -17 -16 -13 -17 -12 -4 4 13 16 21 21 21 13z m-170 -90 c0 -3 -4
-8 -10 -11 -5 -3 -10 -1 -10 4 0 6 5 11 10 11 6 0 10 -2 10 -4z"/>
<path d="M6705 2026 c-194 -48 -352 -212 -395 -407 -29 -133 9 -326 90 -462
83 -138 291 -261 430 -256 32 2 33 2 5 6 -47 5 -145 35 -145 44 0 5 -7 6 -15
3 -8 -4 -15 -1 -15 5 0 6 -8 11 -17 11 -9 0 -13 3 -10 7 10 10 -31 35 -45 27
-7 -4 -8 -3 -4 4 9 14 -18 55 -28 44 -5 -4 -7 0 -6 8 4 26 0 38 -16 55 -11 11
-13 20 -7 26 7 7 16 5 27 -6 26 -27 19 -6 -19 51 -19 29 -35 55 -35 58 0 3
-11 29 -24 58 -39 87 -58 186 -54 279 2 46 8 93 13 104 8 18 7 19 -8 6 -15
-12 -17 -10 -17 15 0 92 172 239 325 279 105 27 254 16 336 -26 20 -10 39 -15
43 -12 3 4 6 1 6 -5 0 -6 9 -14 21 -17 11 -4 36 -20 55 -37 19 -17 34 -26 34
-20 0 14 -77 74 -140 110 -105 58 -263 78 -385 48z"/>
<path d="M6366 1914 c-4 -9 -12 -14 -21 -10 -10 3 -18 -1 -22 -12 -4 -9 -11
-20 -16 -23 -5 -4 -7 -16 -5 -28 3 -20 8 -16 42 29 21 28 36 53 34 56 -3 3 -8
-3 -12 -12z"/>
<path d="M6270 1781 c0 -7 -4 -10 -8 -7 -5 3 -9 0 -9 -7 0 -7 -4 -21 -8 -32
-4 -11 3 -5 15 13 13 18 20 36 16 39 -3 4 -6 1 -6 -6z"/>
<path d="M6427 1733 c-4 -3 -7 -11 -7 -17 0 -6 5 -5 12 2 6 6 9 14 7 17 -3 3
-9 2 -12 -2z"/>
<path d="M6201 1604 c0 -11 3 -14 6 -6 3 7 2 16 -1 19 -3 4 -6 -2 -5 -13z"/>
<path d="M5775 1570 c-3 -5 -1 -10 4 -10 6 0 11 5 11 10 0 6 -2 10 -4 10 -3 0
-8 -4 -11 -10z"/>
<path d="M6186 1555 c-3 -9 -6 -31 -6 -48 0 -26 -2 -29 -11 -17 -8 11 -9 6 -4
-20 4 -19 7 -41 8 -47 0 -7 4 -13 8 -13 6 0 19 150 14 158 -2 2 -5 -4 -9 -13z"/>
<path d="M5811 1536 c-10 -12 2 -19 66 -44 105 -40 120 -44 126 -35 3 5 -6 10
-21 11 -14 1 -28 6 -32 11 -3 5 -17 13 -33 16 -15 4 -25 11 -22 15 3 5 -4 6
-15 3 -22 -6 -53 14 -44 28 9 15 -13 10 -25 -5z"/>
<path d="M6028 1443 c7 -3 16 -2 19 1 4 3 -2 6 -13 5 -11 0 -14 -3 -6 -6z"/>
<path d="M6080 1430 c34 -11 60 -11 35 0 -11 5 -29 8 -40 8 -16 0 -15 -2 5 -8z"/>
<path d="M7381 1294 c0 -11 3 -14 6 -6 3 7 2 16 -1 19 -3 4 -6 -2 -5 -13z"/>
<path d="M7349 1227 c-13 -23 -22 -46 -21 -51 2 -5 -3 -4 -11 3 -12 9 -17 5
-30 -27 -20 -50 -43 -73 -65 -65 -14 5 -14 3 3 -17 20 -23 20 -23 0 -16 -11 4
-16 4 -12 0 4 -4 -1 -16 -10 -28 -16 -18 -15 -18 14 3 18 12 49 42 69 67 32
39 35 46 23 62 -13 15 -12 16 3 4 15 -12 20 -7 43 43 32 67 28 82 -6 22z"/>
<path d="M7145 984 l-30 -26 33 22 c17 12 32 23 32 26 0 7 -4 5 -35 -22z"/>
<path d="M6888 903 c12 -2 30 -2 40 0 9 3 -1 5 -23 4 -22 0 -30 -2 -17 -4z"/>
</g>
</svg>
